<svg width="26" height="23" viewBox="0 0 26 23" fill="none" xmlns="http://www.w3.org/2000/svg">
<path d="M8.98253 21.9384C8.98253 17.3359 12.7156 13.5517 17.3692 13.5517V13.5006C12.7668 13.5006 8.98253 9.76745 8.98253 5.11385H8.93139C8.93139 9.71631 5.19828 13.5006 0.544678 13.5006L0.646955 13.5517C5.24942 13.5517 8.98253 17.2848 8.98253 21.9384ZM19.4148 11.5062C19.4148 8.33557 21.9717 5.77865 25.1423 5.77865V5.72751C21.9717 5.72751 19.4148 3.17059 19.4148 0H19.3636C19.3636 3.17059 16.8067 5.72751 13.6361 5.72751L13.6873 5.77865C16.8579 5.77865 19.4148 8.33557 19.4148 11.5062ZM17.2158 16.7223C17.2158 18.461 15.7839 19.8417 14.0964 19.8417C15.8351 19.8417 17.2158 21.2225 17.2158 22.9612C17.2158 21.2225 18.5966 19.8417 20.3353 19.8417C18.5966 19.8417 17.2158 18.461 17.2158 16.7223Z" fill="white"/>
</svg>
