<svg width="211" height="134" viewBox="0 0 211 134" fill="none" xmlns="http://www.w3.org/2000/svg">
<g filter="url(#filter0_d_54_1201)">
<g clip-path="url(#clip0_54_1201)">
<rect x="35.8945" y="29.181" width="139.533" height="61.8186" rx="14.13" fill="url(#paint0_linear_54_1201)"/>
<path d="M144.958 57.7966C146.725 58.8163 147.608 59.3262 147.608 60.091C147.608 60.8558 146.725 61.3657 144.958 62.3854L137.01 66.9743C135.244 67.994 134.361 68.5039 133.699 68.1215C133.036 67.7391 133.036 66.7193 133.036 64.6798V55.5022C133.036 53.4627 133.036 52.4429 133.699 52.0605C134.361 51.6781 135.244 52.188 137.01 53.2077L144.958 57.7966Z" fill="white"/>
<path d="M63.6564 49.3465C63.6453 49.3465 63.6342 49.3437 63.624 49.3382L63.1974 49.1025L62.7709 49.3382C62.7484 49.3507 62.7208 49.3491 62.6999 49.3344C62.6789 49.3196 62.6683 49.2942 62.6724 49.2688L62.7547 48.7649L62.407 48.4085C62.3895 48.3905 62.3835 48.3643 62.3914 48.3404C62.3994 48.3166 62.42 48.2993 62.4448 48.2956L62.9227 48.2226L63.137 47.766C63.148 47.7425 63.1717 47.7275 63.1976 47.7275C63.2236 47.7275 63.2471 47.7425 63.2581 47.766L63.4725 48.2226L63.9503 48.2956C63.9751 48.2993 63.9958 48.3167 64.0038 48.3404C64.0117 48.3643 64.0057 48.3905 63.9881 48.4085L63.6405 48.7649L63.7227 49.2688C63.7269 49.2942 63.7162 49.3196 63.6953 49.3344C63.6835 49.3424 63.6701 49.3465 63.6564 49.3465Z" fill="url(#paint1_linear_54_1201)"/>
<path d="M77.3253 30.4571C77.3105 30.4571 77.2957 30.4533 77.2821 30.446L76.7134 30.1316L76.1446 30.446C76.1146 30.4626 76.0778 30.4605 76.05 30.4408C76.0219 30.4212 76.0078 30.3872 76.0133 30.3535L76.123 29.6815L75.6595 29.2063C75.6361 29.1824 75.6281 29.1474 75.6386 29.1156C75.6493 29.0838 75.6768 29.0608 75.7099 29.0558L76.347 28.9584L76.6328 28.3497C76.6475 28.3184 76.6791 28.2984 76.7136 28.2984C76.7482 28.2984 76.7796 28.3184 76.7943 28.3497L77.0801 28.9584L77.7172 29.0558C77.7503 29.0608 77.7778 29.084 77.7885 29.1156C77.7991 29.1474 77.791 29.1824 77.7676 29.2063L77.3041 29.6815L77.4138 30.3535C77.4193 30.3872 77.405 30.4212 77.3771 30.4408C77.3614 30.4515 77.3436 30.4571 77.3253 30.4571Z" fill="url(#paint2_linear_54_1201)"/>
<path d="M116.694 34.9201C116.68 34.924 116.665 34.9243 116.65 34.9209L116.018 34.7689L115.553 35.223C115.528 35.247 115.492 35.2547 115.46 35.2432C115.428 35.2317 115.405 35.2027 115.402 35.1687L115.329 34.4917L114.756 34.1568C114.727 34.1399 114.71 34.1083 114.712 34.0748C114.714 34.0413 114.734 34.0118 114.765 33.9982L115.353 33.7351L115.467 33.0723C115.473 33.0383 115.498 33.0106 115.531 33.0015C115.564 32.9923 115.6 33.0032 115.622 33.0294L116.06 33.5404L116.7 33.465C116.733 33.4611 116.766 33.4761 116.784 33.5038C116.803 33.5316 116.805 33.5675 116.788 33.5968L116.468 34.178L116.752 34.7967C116.766 34.8278 116.761 34.8643 116.74 34.8907C116.727 34.9052 116.712 34.9152 116.694 34.9201Z" fill="url(#paint3_linear_54_1201)"/>
<path d="M149.92 79.6248C149.908 79.6281 149.895 79.6284 149.882 79.6255L149.346 79.4965L148.952 79.8818C148.931 79.9021 148.901 79.9087 148.873 79.8989C148.846 79.8891 148.827 79.8645 148.824 79.8357L148.762 79.2614L148.276 78.9772C148.251 78.9629 148.237 78.9361 148.238 78.9077C148.24 78.8793 148.257 78.8543 148.283 78.8427L148.782 78.6196L148.879 78.0573C148.884 78.0284 148.905 78.0049 148.933 77.9972C148.962 77.9894 148.992 77.9986 149.011 78.0209L149.382 78.4544L149.925 78.3904C149.953 78.3871 149.981 78.3998 149.997 78.4233C150.013 78.4469 150.014 78.4774 150 78.5022L149.728 78.9953L149.969 79.5201C149.981 79.5465 149.977 79.5775 149.959 79.5998C149.948 79.6121 149.935 79.6207 149.92 79.6248Z" fill="url(#paint4_linear_54_1201)"/>
<path d="M99.2631 49.8828C99.2554 49.8874 99.2464 49.89 99.2371 49.8904L98.8429 49.9022L98.6431 50.2423C98.6326 50.2602 98.6127 50.2705 98.5921 50.2688C98.5714 50.2672 98.5535 50.2539 98.5459 50.2345L98.3953 49.8497L98.0063 49.745C97.9867 49.7397 97.9717 49.7239 97.9673 49.7041C97.9631 49.6842 97.9703 49.6636 97.986 49.6508L98.2886 49.4029L98.2496 48.9966C98.2475 48.9757 98.2579 48.9555 98.2759 48.9448C98.294 48.9341 98.3166 48.9348 98.3339 48.9466L98.6714 49.1761L99.0343 49.0298C99.0531 49.0222 99.0746 49.0258 99.09 49.039C99.1053 49.0524 99.112 49.0731 99.1072 49.0929L99.0121 49.4844L99.2772 49.8014C99.2906 49.8173 99.2936 49.8394 99.2851 49.8583C99.2802 49.8688 99.2726 49.8772 99.2631 49.8828Z" fill="url(#paint5_linear_54_1201)"/>
<path d="M115.032 79.1003C115.027 79.103 115.022 79.1046 115.016 79.1049L114.777 79.112L114.655 79.3186C114.649 79.3295 114.637 79.3358 114.624 79.3348C114.612 79.3338 114.601 79.3257 114.596 79.3139L114.505 79.0802L114.268 79.0165C114.256 79.0133 114.247 79.0037 114.245 78.9917C114.242 78.9796 114.246 78.9671 114.256 78.9593L114.44 78.8087L114.416 78.5618C114.415 78.5492 114.421 78.5369 114.432 78.5304C114.443 78.5239 114.457 78.5243 114.467 78.5315L114.672 78.6709L114.893 78.5821C114.904 78.5774 114.917 78.5796 114.927 78.5876C114.936 78.5958 114.94 78.6084 114.937 78.6204L114.879 78.8582L115.04 79.0508C115.048 79.0604 115.05 79.0739 115.045 79.0854C115.042 79.0917 115.038 79.0968 115.032 79.1003Z" fill="url(#paint6_linear_54_1201)"/>
<path d="M94.9026 90.4804C94.8941 90.4833 94.8848 90.4839 94.8756 90.4823L94.4879 90.4098L94.2203 90.6995C94.2061 90.7148 94.1845 90.7205 94.1647 90.7145C94.1448 90.7086 94.1302 90.6917 94.127 90.6712L94.0619 90.2631L93.7041 90.0779C93.6861 90.0685 93.6747 90.0499 93.6747 90.0296C93.6748 90.0092 93.6863 89.9907 93.7044 89.9815L94.0529 89.8038L94.1013 89.3985C94.1038 89.3777 94.1182 89.3601 94.1381 89.3536C94.158 89.3469 94.18 89.3525 94.1944 89.3677L94.4752 89.6638L94.8609 89.5983C94.8809 89.5949 94.9012 89.603 94.9134 89.6192C94.9255 89.6355 94.9276 89.6572 94.9187 89.6754L94.7423 90.0377L94.9338 90.4039C94.9434 90.4223 94.9417 90.4446 94.9294 90.4612C94.9223 90.4704 94.9131 90.477 94.9026 90.4804Z" fill="url(#paint7_linear_54_1201)"/>
<path d="M53.5399 83.8232C53.5344 83.821 53.5295 83.8174 53.5255 83.8126L53.361 83.6118L53.1034 83.6442C53.0898 83.6459 53.0765 83.6397 53.069 83.6283C53.0615 83.6168 53.0613 83.6021 53.0684 83.5904L53.2086 83.3573L53.1069 83.1123C53.1018 83.1 53.104 83.0858 53.1126 83.0755C53.1213 83.0653 53.1349 83.0609 53.1479 83.0639L53.3988 83.1221L53.595 82.9385C53.6051 82.9291 53.6198 82.9264 53.6325 82.9315C53.6454 82.9366 53.6541 82.9487 53.6549 82.9624L53.6708 83.2307L53.8929 83.3612C53.9044 83.3679 53.9112 83.3806 53.9105 83.3939C53.9097 83.4073 53.9015 83.4191 53.8893 83.4245L53.6469 83.5322L53.5881 83.7978C53.5851 83.8111 53.5748 83.8216 53.5615 83.8248C53.5541 83.8264 53.5467 83.8259 53.5399 83.8232Z" fill="url(#paint8_linear_54_1201)"/>
<path d="M49.3846 63.7492C49.3747 63.7452 49.3658 63.7388 49.3587 63.7303L49.0627 63.3689L48.5993 63.4273C48.5749 63.4304 48.5509 63.4191 48.5375 63.3986C48.524 63.378 48.5237 63.3516 48.5364 63.3305L48.7886 62.9112L48.6057 62.4705C48.5965 62.4483 48.6004 62.4228 48.6159 62.4044C48.6316 62.386 48.6561 62.378 48.6794 62.3834L49.1307 62.4882L49.4836 62.1579C49.5017 62.141 49.5282 62.136 49.5512 62.1452C49.5743 62.1545 49.59 62.1762 49.5914 62.2009L49.62 62.6834L50.0194 62.9181C50.0402 62.9303 50.0523 62.9531 50.0511 62.9771C50.0496 63.0011 50.0349 63.0223 50.0129 63.0321L49.577 63.2258L49.4712 63.7036C49.4659 63.7276 49.4473 63.7464 49.4235 63.7521C49.4101 63.7551 49.3967 63.754 49.3846 63.7492Z" fill="url(#paint9_linear_54_1201)"/>
<path d="M165.957 85.8273C165.947 85.8233 165.939 85.8169 165.931 85.8084L165.635 85.447L165.172 85.5054C165.148 85.5085 165.124 85.4973 165.11 85.4767C165.097 85.4561 165.096 85.4297 165.109 85.4087L165.361 84.9893L165.178 84.5487C165.169 84.5264 165.173 84.5009 165.189 84.4825C165.204 84.4641 165.229 84.4561 165.252 84.4616L165.703 84.5663L166.056 84.2361C166.074 84.2191 166.101 84.2142 166.124 84.2233C166.147 84.2326 166.163 84.2543 166.164 84.2791L166.193 84.7616L166.592 84.9963C166.613 85.0084 166.625 85.0312 166.624 85.0552C166.622 85.0792 166.608 85.1005 166.586 85.1102L166.15 85.3039L166.044 85.7817C166.039 85.8057 166.02 85.8245 165.996 85.8302C165.983 85.8332 165.969 85.8321 165.957 85.8273Z" fill="url(#paint10_linear_54_1201)"/>
<path d="M88.111 78.0535C88.1057 78.0552 88.1001 78.0555 88.0944 78.0544L87.8582 78.0067L87.6921 78.1814C87.6833 78.1906 87.6701 78.194 87.658 78.1901C87.6459 78.1863 87.6371 78.1759 87.6353 78.1633L87.5991 77.9134L87.3821 77.7971C87.3711 77.7912 87.3644 77.7797 87.3646 77.7673C87.3648 77.7549 87.372 77.7436 87.3831 77.7382L87.5976 77.6326L87.6307 77.3854C87.6324 77.3727 87.6414 77.3621 87.6536 77.3582C87.6658 77.3544 87.6792 77.3579 87.6879 77.3674L87.8569 77.5508L88.0932 77.5141C88.1054 77.5122 88.1177 77.5173 88.125 77.5273C88.1323 77.5374 88.1334 77.5506 88.1278 77.5617L88.0169 77.7815L88.1307 78.007C88.1364 78.0183 88.1351 78.0319 88.1275 78.042C88.1231 78.0475 88.1174 78.0515 88.111 78.0535Z" fill="url(#paint11_linear_54_1201)"/>
<path d="M150.512 44.1245C150.506 44.125 150.501 44.1242 150.496 44.1219L150.275 44.0249L150.075 44.1602C150.065 44.1673 150.051 44.1678 150.04 44.1615C150.029 44.1552 150.023 44.1431 150.024 44.1304L150.042 43.8785L149.854 43.7186C149.845 43.7106 149.841 43.6979 149.844 43.6858C149.847 43.6737 149.856 43.6643 149.868 43.6613L150.1 43.6039L150.185 43.3694C150.189 43.3574 150.2 43.3489 150.213 43.3478C150.226 43.3466 150.238 43.3529 150.245 43.364L150.371 43.5792L150.609 43.5937C150.622 43.5945 150.633 43.6021 150.638 43.6134C150.643 43.6248 150.641 43.638 150.633 43.6477L150.478 43.8388L150.541 44.0833C150.544 44.0956 150.54 44.1086 150.53 44.1168C150.525 44.1213 150.519 44.1239 150.512 44.1245Z" fill="url(#paint12_linear_54_1201)"/>
<path d="M75.1557 56.7549C75.1483 56.7549 75.1409 56.7531 75.1341 56.7494L74.8497 56.5922L74.5654 56.7494C74.5504 56.7577 74.532 56.7566 74.518 56.7468C74.504 56.737 74.4969 56.72 74.4997 56.7031L74.5546 56.3671L74.3228 56.1296C74.3111 56.1176 74.3071 56.1001 74.3123 56.0842C74.3177 56.0683 74.3315 56.0568 74.348 56.0543L74.6666 56.0056L74.8094 55.7012C74.8168 55.6856 74.8326 55.6756 74.8498 55.6756C74.8671 55.6756 74.8829 55.6856 74.8902 55.7012L75.0331 56.0056L75.3517 56.0543C75.3682 56.0568 75.3819 56.0684 75.3873 56.0842C75.3926 56.1001 75.3885 56.1176 75.3768 56.1296L75.1451 56.3671L75.1999 56.7031C75.2027 56.72 75.1955 56.737 75.1816 56.7468C75.1738 56.7522 75.1648 56.7549 75.1557 56.7549Z" fill="url(#paint13_linear_54_1201)"/>
<path d="M136.071 63.4767C136.06 63.4767 136.048 63.4739 136.038 63.4684L135.612 63.2326L135.185 63.4684C135.163 63.4808 135.135 63.4792 135.114 63.4645C135.093 63.4497 135.083 63.4243 135.087 63.399L135.169 62.895L134.821 62.5386C134.804 62.5207 134.798 62.4944 134.806 62.4706C134.814 62.4467 134.834 62.4294 134.859 62.4257L135.337 62.3527L135.551 61.8961C135.562 61.8727 135.586 61.8577 135.612 61.8577C135.638 61.8577 135.661 61.8727 135.672 61.8961L135.887 62.3527L136.365 62.4257C136.389 62.4294 136.41 62.4469 136.418 62.4706C136.426 62.4944 136.42 62.5207 136.402 62.5386L136.055 62.895L136.137 63.399C136.141 63.4243 136.13 63.4497 136.11 63.4645C136.098 63.4725 136.084 63.4767 136.071 63.4767Z" fill="#E97F13"/>
<path d="M140.91 60.4843C140.895 60.4843 140.88 60.4805 140.866 60.4732L140.298 60.1588L139.729 60.4732C139.699 60.4898 139.662 60.4877 139.634 60.468C139.606 60.4484 139.592 60.4145 139.598 60.3807L139.707 59.7087L139.244 59.2336C139.22 59.2096 139.212 59.1746 139.223 59.1428C139.234 59.111 139.261 59.088 139.294 59.083L139.931 58.9856L140.217 58.3769C140.232 58.3456 140.263 58.3256 140.298 58.3256C140.332 58.3256 140.364 58.3456 140.379 58.3769L140.664 58.9856L141.301 59.083C141.335 59.088 141.362 59.1112 141.373 59.1428C141.383 59.1746 141.375 59.2096 141.352 59.2336L140.888 59.7087L140.998 60.3807C141.004 60.4145 140.989 60.4484 140.961 60.468C140.946 60.4788 140.928 60.4843 140.91 60.4843Z" fill="#E97F13"/>
<path d="M135.648 55.8719C135.64 55.8719 135.633 55.8701 135.626 55.8664L135.342 55.7092L135.058 55.8664C135.043 55.8747 135.024 55.8736 135.01 55.8638C134.996 55.854 134.989 55.837 134.992 55.8201L135.047 55.4841L134.815 55.2466C134.803 55.2346 134.799 55.2171 134.805 55.2012C134.81 55.1853 134.824 55.1738 134.84 55.1713L135.159 55.1226L135.302 54.8182C135.309 54.8026 135.325 54.7926 135.342 54.7926C135.359 54.7926 135.375 54.8026 135.382 54.8182L135.525 55.1226L135.844 55.1713C135.86 55.1738 135.874 55.1854 135.879 55.2012C135.885 55.2171 135.881 55.2346 135.869 55.2466L135.637 55.4841L135.692 55.8201C135.695 55.837 135.688 55.854 135.674 55.8638C135.666 55.8692 135.657 55.8719 135.648 55.8719Z" fill="#E97F13"/>
<path d="M160.177 86.7206C160.177 83.3573 162.905 80.5919 166.305 80.5919V80.5545C162.942 80.5545 160.177 77.8265 160.177 74.4258H160.139C160.139 77.7891 157.411 80.5545 154.01 80.5545L154.085 80.5919C157.449 80.5919 160.177 83.3199 160.177 86.7206ZM167.8 79.0971C167.8 76.7801 169.669 74.9116 171.986 74.9116V74.8742C169.669 74.8742 167.8 73.0057 167.8 70.6887H167.763C167.763 73.0057 165.894 74.8742 163.577 74.8742L163.615 74.9116C165.932 74.9116 167.8 76.7801 167.8 79.0971ZM166.193 82.9089C166.193 84.1794 165.147 85.1884 163.914 85.1884C165.184 85.1884 166.193 86.1975 166.193 87.468C166.193 86.1975 167.202 85.1884 168.473 85.1884C167.202 85.1884 166.193 84.1794 166.193 82.9089Z" fill="white"/>
<path d="M72.8676 63.3186H67.2138L66.2424 66.0775H63.9304L68.7681 52.5551H71.3327L76.1704 66.0775H73.839L72.8676 63.3186ZM72.2458 61.5118L70.0504 55.2363L67.8355 61.5118H72.2458ZM80.4888 56.9266C80.8126 56.3826 81.24 55.9616 81.7711 55.6637C82.3151 55.3529 82.9562 55.1974 83.6945 55.1974V57.49H83.1311C82.2632 57.49 81.6027 57.7102 81.1493 58.1506C80.709 58.591 80.4888 59.3552 80.4888 60.4432V66.0775H78.2739V55.3723H80.4888V56.9266ZM95.5419 60.4626C95.5419 60.8641 95.516 61.2268 95.4642 61.5506H87.2847C87.3495 62.4055 87.6668 63.092 88.2367 63.6101C88.8066 64.1282 89.506 64.3872 90.335 64.3872C91.5266 64.3872 92.3685 63.8885 92.8607 62.8912H95.2505C94.9267 63.8756 94.3373 64.6851 93.4825 65.3198C92.6405 65.9415 91.5914 66.2524 90.335 66.2524C89.3118 66.2524 88.3921 66.0257 87.5761 65.5724C86.7731 65.1061 86.1384 64.4585 85.6721 63.6295C85.2188 62.7876 84.9921 61.8162 84.9921 60.7152C84.9921 59.6142 85.2123 58.6493 85.6527 57.8203C86.106 56.9784 86.7342 56.3308 87.5373 55.8774C88.3533 55.4241 89.2859 55.1974 90.335 55.1974C91.3453 55.1974 92.2455 55.4176 93.0356 55.858C93.8257 56.2984 94.4409 56.9201 94.8813 57.7232C95.3217 58.5133 95.5419 59.4264 95.5419 60.4626ZM93.2299 59.7632C93.2169 58.9472 92.9255 58.2931 92.3556 57.8009C91.7857 57.3087 91.0798 57.0626 90.2379 57.0626C89.4737 57.0626 88.8196 57.3087 88.2756 57.8009C87.7316 58.2801 87.4078 58.9342 87.3041 59.7632H93.2299ZM103.123 55.1974C103.965 55.1974 104.716 55.3723 105.376 55.722C106.05 56.0717 106.575 56.5898 106.95 57.2763C107.326 57.9628 107.514 58.7918 107.514 59.7632V66.0775H105.318V60.0935C105.318 59.135 105.079 58.4032 104.599 57.898C104.12 57.3799 103.466 57.1209 102.637 57.1209C101.808 57.1209 101.147 57.3799 100.655 57.898C100.176 58.4032 99.9364 59.135 99.9364 60.0935V66.0775H97.7216V55.3723H99.9364V56.5963C100.299 56.1559 100.759 55.8127 101.316 55.5666C101.886 55.3205 102.488 55.1974 103.123 55.1974ZM109.601 60.6763C109.601 59.6013 109.821 58.6493 110.261 57.8203C110.714 56.9914 111.323 56.3502 112.087 55.8969C112.865 55.4306 113.719 55.1974 114.652 55.1974C115.494 55.1974 116.226 55.3658 116.847 55.7026C117.482 56.0264 117.987 56.4344 118.363 56.9266V55.3723H120.597V66.0775H118.363V64.4844C117.987 64.9895 117.476 65.4105 116.828 65.7472C116.18 66.084 115.442 66.2524 114.613 66.2524C113.694 66.2524 112.852 66.0192 112.087 65.5529C111.323 65.0737 110.714 64.4131 110.261 63.5712C109.821 62.7164 109.601 61.7514 109.601 60.6763ZM118.363 60.7152C118.363 59.9769 118.207 59.3358 117.897 58.7918C117.599 58.2478 117.204 57.8333 116.711 57.5483C116.219 57.2634 115.688 57.1209 115.118 57.1209C114.548 57.1209 114.017 57.2634 113.525 57.5483C113.033 57.8203 112.631 58.2283 112.321 58.7723C112.023 59.3034 111.874 59.938 111.874 60.6763C111.874 61.4146 112.023 62.0623 112.321 62.6192C112.631 63.1762 113.033 63.6036 113.525 63.9015C114.03 64.1865 114.561 64.3289 115.118 64.3289C115.688 64.3289 116.219 64.1865 116.711 63.9015C117.204 63.6165 117.599 63.2021 117.897 62.6581C118.207 62.1011 118.363 61.4535 118.363 60.7152Z" fill="url(#paint14_linear_54_1201)"/>
<g filter="url(#filter1_f_54_1201)">
<ellipse cx="104.777" cy="93.2081" rx="65.3511" ry="5.7403" fill="#6E63FF" fill-opacity="0.65"/>
</g>
</g>
</g>
<defs>
<filter id="filter0_d_54_1201" x="0.569633" y="0.921112" width="210.183" height="132.468" filterUnits="userSpaceOnUse" color-interpolation-filters="sRGB">
<feFlood flood-opacity="0" result="BackgroundImageFix"/>
<feColorMatrix in="SourceAlpha" type="matrix" values="0 0 0 0 0 0 0 0 0 0 0 0 0 0 0 0 0 0 127 0" result="hardAlpha"/>
<feOffset dy="7.06498"/>
<feGaussianBlur stdDeviation="17.6624"/>
<feComposite in2="hardAlpha" operator="out"/>
<feColorMatrix type="matrix" values="0 0 0 0 1 0 0 0 0 0.537255 0 0 0 0 0.0666667 0 0 0 0.12 0"/>
<feBlend mode="normal" in2="BackgroundImageFix" result="effect1_dropShadow_54_1201"/>
<feBlend mode="normal" in="SourceGraphic" in2="effect1_dropShadow_54_1201" result="shape"/>
</filter>
<filter id="filter1_f_54_1201" x="18.2306" y="66.2729" width="173.092" height="53.8705" filterUnits="userSpaceOnUse" color-interpolation-filters="sRGB">
<feFlood flood-opacity="0" result="BackgroundImageFix"/>
<feBlend mode="normal" in="SourceGraphic" in2="BackgroundImageFix" result="shape"/>
<feGaussianBlur stdDeviation="10.5975" result="effect1_foregroundBlur_54_1201"/>
</filter>
<linearGradient id="paint0_linear_54_1201" x1="105.661" y1="29.181" x2="105.661" y2="90.9996" gradientUnits="userSpaceOnUse">
<stop stop-color="#FF8911"/>
<stop offset="1" stop-color="#CD7114"/>
</linearGradient>
<linearGradient id="paint1_linear_54_1201" x1="63.1976" y1="47.7275" x2="63.1976" y2="49.3466" gradientUnits="userSpaceOnUse">
<stop stop-color="white"/>
<stop offset="1" stop-color="#EFEFEF"/>
</linearGradient>
<linearGradient id="paint2_linear_54_1201" x1="76.7136" y1="28.2984" x2="76.7136" y2="30.4571" gradientUnits="userSpaceOnUse">
<stop stop-color="white"/>
<stop offset="1" stop-color="#EFEFEF"/>
</linearGradient>
<linearGradient id="paint3_linear_54_1201" x1="115.531" y1="33.0015" x2="116.104" y2="35.0827" gradientUnits="userSpaceOnUse">
<stop stop-color="white"/>
<stop offset="1" stop-color="#E2E2E2"/>
</linearGradient>
<linearGradient id="paint4_linear_54_1201" x1="148.933" y1="77.9972" x2="149.42" y2="79.7627" gradientUnits="userSpaceOnUse">
<stop stop-color="white"/>
<stop offset="1" stop-color="#E2E2E2"/>
</linearGradient>
<linearGradient id="paint5_linear_54_1201" x1="98.2759" y1="48.9448" x2="98.9436" y2="50.0721" gradientUnits="userSpaceOnUse">
<stop stop-color="white"/>
<stop offset="1" stop-color="#E2E2E2"/>
</linearGradient>
<linearGradient id="paint6_linear_54_1201" x1="114.432" y1="78.5304" x2="114.838" y2="79.2152" gradientUnits="userSpaceOnUse">
<stop stop-color="white"/>
<stop offset="1" stop-color="#E2E2E2"/>
</linearGradient>
<linearGradient id="paint7_linear_54_1201" x1="94.1381" y1="89.3536" x2="94.5502" y2="90.5973" gradientUnits="userSpaceOnUse">
<stop stop-color="white"/>
<stop offset="1" stop-color="#E2E2E2"/>
</linearGradient>
<linearGradient id="paint8_linear_54_1201" x1="53.6325" y1="82.9315" x2="53.3129" y2="83.7326" gradientUnits="userSpaceOnUse">
<stop stop-color="white"/>
<stop offset="1" stop-color="#E2E2E2"/>
</linearGradient>
<linearGradient id="paint9_linear_54_1201" x1="49.5512" y1="62.1452" x2="48.9762" y2="63.5862" gradientUnits="userSpaceOnUse">
<stop stop-color="white"/>
<stop offset="1" stop-color="#E2E2E2"/>
</linearGradient>
<linearGradient id="paint10_linear_54_1201" x1="166.124" y1="84.2233" x2="165.549" y2="85.6644" gradientUnits="userSpaceOnUse">
<stop stop-color="white"/>
<stop offset="1" stop-color="#E2E2E2"/>
</linearGradient>
<linearGradient id="paint11_linear_54_1201" x1="87.6536" y1="77.3582" x2="87.8946" y2="78.1218" gradientUnits="userSpaceOnUse">
<stop stop-color="white"/>
<stop offset="1" stop-color="#E2E2E2"/>
</linearGradient>
<linearGradient id="paint12_linear_54_1201" x1="150.213" y1="43.3478" x2="150.286" y2="44.1452" gradientUnits="userSpaceOnUse">
<stop stop-color="white"/>
<stop offset="1" stop-color="#E2E2E2"/>
</linearGradient>
<linearGradient id="paint13_linear_54_1201" x1="74.8498" y1="55.6756" x2="74.8498" y2="56.755" gradientUnits="userSpaceOnUse">
<stop stop-color="white"/>
<stop offset="1" stop-color="#EFEFEF"/>
</linearGradient>
<linearGradient id="paint14_linear_54_1201" x1="92.8544" y1="45.0775" x2="92.8544" y2="74.2206" gradientUnits="userSpaceOnUse">
<stop stop-color="white"/>
<stop offset="1" stop-color="white"/>
</linearGradient>
<clipPath id="clip0_54_1201">
<rect x="35.8945" y="29.181" width="139.533" height="61.8186" rx="14.13" fill="white"/>
</clipPath>
</defs>
</svg>
