<svg width="77" height="67" viewBox="0 0 77 67" fill="none" xmlns="http://www.w3.org/2000/svg">
<g filter="url(#filter0_d_49_333)">
<path d="M59.9294 33.3232V47.0564C59.9294 48.3141 58.3953 48.9439 57.4981 48.0546L53.209 43.8033H50.2537C49.8614 43.8033 49.5433 43.488 49.5433 43.0991V37.2828C49.5433 36.894 49.8614 36.5787 50.2537 36.5787H51.0778C51.4702 36.5787 51.7882 36.894 51.7882 37.2828V39.2967C51.7882 39.6911 52.1008 40.0008 52.4986 40.0008C52.8964 40.0008 53.209 39.6911 53.209 39.2967V36.8703C53.209 36.6836 53.2839 36.5045 53.4171 36.3724L57.4998 32.3257C58.3964 31.437 59.9294 32.0664 59.9294 33.3232ZM48.2077 37.8321L48.1651 33.4382C48.1651 31.3398 46.4459 29.6358 44.3147 29.6358L39.8235 29.6694C41.9937 29.189 43.6329 27.264 43.6329 24.9743C43.6329 22.3126 41.4448 20.1721 38.7737 20.1721C36.0885 20.1721 33.9146 22.3126 33.9146 24.9743C33.9146 27.2821 35.5671 29.2237 37.7693 29.6848L27.7902 29.7594C31.252 29.594 34.0283 26.7697 34.0283 23.2984C34.0283 19.7214 31.0872 16.8203 27.4783 16.8203C23.8694 16.8203 20.9426 19.7214 20.9426 23.2984C20.9426 26.7844 23.7282 29.6204 27.2099 29.7637L19.8342 29.8189C17.8735 29.833 16.3105 31.4102 16.3105 33.3537L16.3532 46.9719C16.3674 49.0562 18.0866 50.7461 20.2035 50.7461C20.2035 50.7461 20.2178 50.7461 20.232 50.7461L44.4426 50.6053C45.4656 50.5771 46.4459 50.1829 47.1706 49.4646C47.881 48.7323 48.2787 47.7887 48.2645 46.7466L48.2077 37.8321ZM35.3354 24.9743C35.3354 23.1013 36.8699 21.5663 38.7737 21.5663C40.6634 21.5663 42.2121 23.1013 42.2121 24.9743C42.2121 26.8474 40.6634 28.3824 38.7737 28.3824C36.8699 28.3824 35.3354 26.8474 35.3354 24.9743ZM23.7842 23.2984C23.7842 21.2846 25.4466 19.6369 27.4784 19.6369C29.5243 19.6369 31.1867 21.2846 31.1867 23.2984C31.1867 25.3264 29.5243 26.9741 27.4784 26.9741C25.4466 26.9741 23.7842 25.3264 23.7842 23.2984ZM24.7786 47.2254C24.7786 47.6197 24.466 47.9295 24.0682 47.9295H19.8626C19.4648 47.9295 19.1522 47.6197 19.1522 47.2254V44.8173C19.1522 44.437 19.4648 44.1131 19.8626 44.1131H24.0682C24.466 44.1131 24.7786 44.437 24.7786 44.8173L24.7786 47.2254ZM42.9365 36.4238C41.9846 36.4238 41.2031 35.6492 41.2031 34.7056C41.2031 33.7621 41.9846 32.9875 42.9365 32.9875C43.9169 32.9875 44.6699 33.7621 44.6699 34.7056C44.6699 35.6492 43.9169 36.4238 42.9365 36.4238Z" fill="white"/>
</g>
<defs>
<filter id="filter0_d_49_333" x="0.155397" y="0.665163" width="75.9292" height="66.2361" filterUnits="userSpaceOnUse" color-interpolation-filters="sRGB">
<feFlood flood-opacity="0" result="BackgroundImageFix"/>
<feColorMatrix in="SourceAlpha" type="matrix" values="0 0 0 0 0 0 0 0 0 0 0 0 0 0 0 0 0 0 127 0" result="hardAlpha"/>
<feOffset/>
<feGaussianBlur stdDeviation="8.07757"/>
<feComposite in2="hardAlpha" operator="out"/>
<feColorMatrix type="matrix" values="0 0 0 0 1 0 0 0 0 1 0 0 0 0 1 0 0 0 0.4 0"/>
<feBlend mode="normal" in2="BackgroundImageFix" result="effect1_dropShadow_49_333"/>
<feBlend mode="normal" in="SourceGraphic" in2="effect1_dropShadow_49_333" result="shape"/>
</filter>
</defs>
</svg>
