<svg width="44" height="44" viewBox="0 0 44 44" fill="none" xmlns="http://www.w3.org/2000/svg">
<mask id="mask0_49_334" style="mask-type:luminance" maskUnits="userSpaceOnUse" x="0" y="0" width="44" height="44">
<path d="M0.310547 0.300049H43.9294V43.9189H0.310547V0.300049Z" fill="white"/>
</mask>
<g mask="url(#mask0_49_334)">
<path d="M17.7419 1.6406L10.4381 3.13398C9.92151 3.24073 9.49795 3.75842 9.49795 4.28529V22.487C8.75857 22.2363 7.98294 22.1091 7.20222 22.1105C4.03296 22.1105 1.46289 24.1089 1.46289 26.5734C1.46289 29.039 4.03296 31.0374 7.20222 31.0374C10.3164 31.0374 12.8371 29.1056 12.9255 26.702H12.9415V8.88363L17.7419 7.90221C18.2585 7.79546 18.6809 7.27777 18.6809 6.7509V2.40623C18.6809 1.87936 18.2585 1.535 17.7419 1.6406ZM41.8471 6.23207L34.5432 7.72544C34.0267 7.83219 33.6031 8.34988 33.6031 8.87675V27.0785C32.8637 26.8278 32.0881 26.7006 31.3074 26.702C28.1381 26.702 25.5681 28.7004 25.5681 31.1649C25.5681 33.6305 28.1381 35.6289 31.3074 35.6289C34.4216 35.6289 36.9423 33.697 37.0307 31.2934H37.0467V13.4751L41.8471 12.4937C42.3636 12.3869 42.7861 11.8692 42.7861 11.3424V6.99769C42.7861 6.47082 42.3636 6.12646 41.8471 6.23207Z" fill="#0075FF"/>
<path d="M28.072 13.1207L20.7681 14.6141C20.2516 14.7209 19.828 15.2385 19.828 15.7654V33.9671C19.0886 33.7164 18.313 33.5892 17.5323 33.5906C14.363 33.5906 11.793 35.5891 11.793 38.0535C11.793 40.5191 14.363 42.5176 17.5323 42.5176C20.6465 42.5176 23.1672 40.5857 23.2556 38.1821H23.2716V20.3638L28.072 19.3823C28.5885 19.2756 29.011 18.7579 29.011 18.231V13.8864C29.011 13.3595 28.5885 13.0151 28.072 13.1207Z" fill="#0075FF"/>
</g>
</svg>
