<svg width="50" height="40" viewBox="0 0 50 40" fill="none" xmlns="http://www.w3.org/2000/svg">
<path fill-rule="evenodd" clip-rule="evenodd" d="M26.6528 4.5287C26.3544 2.20373 24.3748 0.407227 21.9773 0.407227C19.5275 0.407227 17.5141 2.2828 17.2847 4.68134H17.2629V27.8214H17.2567C17.2608 27.8718 17.2629 27.9226 17.2629 27.9741C17.2629 28.9857 16.4458 29.8058 15.438 29.8058C14.4302 29.8058 13.613 28.9857 13.613 27.9741C13.613 27.9226 13.6152 27.8718 13.6193 27.8214H13.613V16.8931C13.613 14.2798 11.5022 12.161 8.89864 12.161C6.29506 12.161 4.18423 14.2798 4.18423 16.8931C4.18423 16.9442 4.18499 16.9951 4.18666 17.0458H4.18423V19.1828H0.078125V22.0831H6.46448C6.54441 22.0833 6.62359 22.0676 6.69749 22.037C6.77139 22.0064 6.83855 21.9615 6.89514 21.9048C6.95172 21.8482 6.99662 21.7809 7.02726 21.7068C7.0579 21.6327 7.07368 21.5532 7.0737 21.473V17.0458H7.07994C7.07577 16.995 7.07369 16.9441 7.0737 16.8931C7.0737 15.8815 7.89082 15.0613 8.89864 15.0613C9.90646 15.0613 10.7236 15.8815 10.7236 16.8931C10.7236 16.9446 10.7214 16.9954 10.7173 17.0458H10.7236V28.0363C10.7567 30.6211 12.8549 32.7061 15.438 32.7061C18.0416 32.7061 20.1524 30.5874 20.1524 27.9741C20.1524 27.8668 20.1489 27.7604 20.1417 27.6547H20.1524V5.29193H20.1586C20.1545 5.24116 20.1524 5.19023 20.1524 5.13929C20.1524 4.12769 20.9695 3.30752 21.9773 3.30752C22.9851 3.30752 23.8023 4.12769 23.8023 5.13929C23.8023 5.19073 23.8001 5.24156 23.796 5.29193H23.8023V39.1796H26.6917V4.5287H26.6528ZM39.1574 24.5255C39.0453 27.0391 36.9796 29.0426 34.4477 29.0426C31.8441 29.0426 29.7333 26.9239 29.7333 24.3105C29.7333 24.2803 29.7336 24.2502 29.7342 24.2202H29.7333V6.51311H32.6228V24.1579H32.629C32.6249 24.2083 32.6228 24.2591 32.6228 24.3105C32.6228 25.3221 33.4399 26.1423 34.4477 26.1423C35.4555 26.1423 36.2726 25.3221 36.2726 24.3105C36.2726 24.2591 36.2705 24.2083 36.2664 24.1579H36.2726V16.5878H36.2822C36.439 14.1166 38.4855 12.161 40.987 12.161C43.5398 12.161 45.6187 14.1977 45.699 16.7405H45.7015V18.2669H49.3513V21.1672H43.4212C43.3412 21.1673 43.2621 21.1515 43.1882 21.1208C43.1143 21.0901 43.0471 21.0452 42.9905 20.9884C42.934 20.9317 42.8891 20.8643 42.8584 20.7902C42.8278 20.7161 42.812 20.6366 42.812 20.5563V17.0458H42.8058C42.8099 16.9954 42.812 16.9446 42.812 16.8931C42.812 15.8815 41.9949 15.0613 40.987 15.0613C39.9792 15.0613 39.1621 15.8815 39.1621 16.8931C39.1621 16.9446 39.1642 16.9954 39.1684 17.0458H39.1621V24.5255H39.1574Z" fill="#FF5439"/>
</svg>
